<?xml version="1.0" standalone="no"?>
<!DOCTYPE svg PUBLIC "-//W3C//DTD SVG 20010904//EN"
 "http://www.w3.org/TR/2001/REC-SVG-20010904/DTD/svg10.dtd">
<svg version="1.0" xmlns="http://www.w3.org/2000/svg"
 width="1024.000000pt" height="1024.000000pt" viewBox="0 0 1024.000000 1024.000000"
 preserveAspectRatio="xMidYMid meet">

<g transform="translate(0.000000,1024.000000) scale(0.100000,-0.100000)"
fill="black" stroke="white" stroke-width="10">
<path d="M3333 7095 c-65 -28 -63 -9 -63 -695 l0 -620 59 0 c194 0 443 -89
618 -222 35 -26 66 -48 69 -48 2 0 4 338 4 750 0 835 2 808 -64 835 -50 21
-575 21 -623 0z"/>
<path d="M4540 6151 l0 -551 265 0 c283 0 337 6 424 48 175 85 217 327 79 459
-38 36 -111 72 -148 73 -18 0 -7 8 35 25 128 52 180 166 139 304 -21 71 -79
134 -152 163 -54 21 -73 23 -349 26 l-293 3 0 -550z m494 365 c53 -22 76 -60
76 -126 0 -43 -5 -64 -21 -84 -37 -47 -68 -56 -196 -56 l-118 0 0 140 0 140
113 0 c73 0 124 -5 146 -14z m-5 -437 c63 -13 105 -51 121 -107 15 -58 3 -109
-36 -151 l-32 -36 -154 -3 -153 -3 0 155 0 156 102 0 c56 0 125 -5 152 -11z"/>
<path d="M7040 6525 l0 -105 -60 0 -60 0 0 -80 0 -80 60 0 60 0 0 -237 c0
-138 5 -254 11 -277 14 -51 80 -121 135 -142 35 -13 64 -16 140 -11 53 3 97 7
99 9 2 2 -1 30 -6 63 -16 109 -14 105 -65 105 -34 0 -51 6 -69 25 l-25 24 0
221 0 222 75 -4 75 -3 0 83 0 82 -75 0 -75 0 0 105 0 105 -110 0 -110 0 0
-105z"/>
<path d="M7540 6525 l0 -105 -50 0 -50 0 0 -82 0 -83 50 3 50 4 0 -239 c0
-131 4 -253 10 -272 17 -60 59 -109 117 -137 50 -25 60 -26 149 -21 53 3 98 8
101 11 3 3 0 41 -7 86 l-12 80 -45 0 c-33 0 -50 6 -68 25 l-25 24 0 221 0 220
75 0 75 0 0 80 0 80 -75 0 -75 0 0 105 0 105 -110 0 -110 0 0 -105z"/>
<path d="M8276 6429 c-63 -15 -155 -69 -197 -117 -88 -101 -125 -252 -96 -395
20 -99 50 -159 109 -217 53 -53 108 -83 193 -105 75 -19 125 -19 200 0 193 51
305 203 305 415 0 119 -37 223 -107 301 -92 102 -264 151 -407 118z m195 -192
c19 -12 45 -44 59 -72 22 -43 25 -63 25 -150 0 -89 -3 -106 -28 -157 -30 -61
-60 -87 -112 -95 -84 -14 -160 31 -191 114 -21 55 -24 187 -5 251 13 46 62
109 95 122 43 18 121 11 157 -13z"/>
<path d="M5865 6411 c-43 -19 -119 -95 -130 -130 -13 -42 -20 -19 -17 59 l4
80 -111 0 -111 0 0 -410 0 -410 115 0 115 0 0 243 0 243 28 55 c35 70 86 100
183 107 l69 5 0 88 0 89 -52 0 c-30 0 -71 -9 -93 -19z"/>
<path d="M2214 6410 c-12 -4 -31 -21 -43 -36 l-21 -27 1 -716 c1 -594 3 -708
13 -671 21 73 73 190 116 260 130 211 312 376 528 479 l72 35 0 308 0 308 -29
32 -29 33 -294 2 c-161 1 -303 -2 -314 -7z"/>
<path d="M6080 6112 c0 -250 3 -317 15 -353 65 -189 334 -236 475 -83 22 24
43 44 45 44 3 0 5 -27 5 -60 l0 -60 110 0 110 0 0 410 0 410 -115 0 -115 0 0
-254 c0 -155 -4 -266 -11 -283 -15 -42 -69 -92 -109 -103 -42 -11 -103 1 -132
27 -44 39 -48 67 -48 348 l0 265 -115 0 -115 0 0 -308z"/>
<path d="M1198 5871 l-33 -29 0 -812 0 -812 33 -29 32 -29 288 0 c316 0 325 2
354 60 17 32 18 92 18 810 0 718 -1 778 -18 810 -29 58 -38 60 -354 60 l-288
0 -32 -29z"/>
<path d="M3080 5561 c-362 -79 -654 -360 -740 -712 -111 -458 114 -931 534
-1124 126 -58 232 -80 391 -80 208 0 357 45 527 158 350 233 511 668 397 1077
-89 323 -355 587 -674 671 -116 30 -321 35 -435 10z m375 -211 c263 -67 466
-271 536 -537 29 -113 30 -291 0 -396 -60 -216 -203 -393 -396 -488 -120 -58
-189 -74 -330 -74 -142 1 -211 17 -335 77 -70 35 -102 59 -180 137 -161 162
-224 314 -224 541 -1 148 20 236 87 364 60 118 200 256 317 314 47 23 119 50
160 61 104 27 261 28 365 1z"/>
<path d="M3210 5113 l0 -68 -58 -17 c-201 -59 -254 -314 -88 -425 28 -19 101
-50 177 -73 116 -37 132 -45 150 -73 46 -74 -21 -157 -126 -157 -71 0 -130 41
-159 112 l-15 36 -58 -24 c-32 -13 -66 -24 -76 -24 -16 0 -18 -5 -12 -32 16
-81 108 -168 206 -195 l59 -16 0 -64 0 -63 60 0 60 0 0 63 0 64 43 12 c97 29
163 88 192 172 33 91 12 182 -55 250 -40 40 -59 50 -150 78 -163 51 -189 61
-205 84 -46 66 18 147 117 147 53 0 102 -28 129 -75 12 -19 25 -35 29 -35 5 0
30 9 57 21 26 11 58 25 71 30 22 8 22 10 7 39 -28 55 -79 103 -140 132 -33 15
-68 28 -77 28 -15 0 -18 10 -18 70 l0 70 -60 0 -60 0 0 -67z"/>
<path d="M4799 5250 c-61 -10 -116 -40 -161 -87 -50 -52 -68 -99 -68 -180 0
-70 24 -138 70 -203 l20 -28 -41 -27 c-56 -39 -98 -90 -127 -153 -21 -47 -24
-65 -20 -131 6 -99 41 -169 113 -223 75 -57 132 -73 255 -73 94 0 111 3 165
28 33 16 70 37 81 48 l21 20 32 -40 32 -40 104 -3 c58 -2 105 -2 105 0 0 1
-32 45 -71 97 l-71 94 25 43 c36 61 57 142 57 215 l0 63 -90 0 -90 0 0 -41 c0
-46 -19 -129 -29 -129 -4 0 -18 15 -31 33 -13 17 -52 64 -87 104 l-63 72 50
36 c27 20 61 50 76 68 126 150 85 362 -82 420 -54 19 -121 25 -175 17z m124
-191 c51 -55 29 -134 -54 -200 l-40 -32 -17 23 c-84 116 -80 213 11 239 43 12
67 5 100 -30z m-44 -561 c56 -68 100 -127 98 -133 -6 -21 -92 -55 -137 -55
-110 0 -177 84 -156 195 7 33 68 115 86 115 5 0 54 -55 109 -122z"/>
<path d="M5660 4703 l0 -548 110 0 110 0 0 348 c0 201 4 346 9 343 5 -3 113
-159 240 -345 l232 -340 100 -3 99 -3 0 548 0 547 -110 0 -110 0 -2 -357 -3
-358 -241 355 -241 355 -97 3 -96 3 0 -548z"/>
<path d="M7572 5080 l3 -100 -52 0 -53 0 0 -85 0 -85 49 0 49 0 4 -242 c3
-223 5 -247 24 -288 50 -106 156 -153 293 -131 35 6 65 12 67 13 1 2 -3 39 -9
83 l-13 80 -34 3 c-57 5 -88 21 -99 54 -6 18 -11 115 -11 229 l0 199 78 0 77
0 -3 85 -3 85 -75 0 -75 0 3 100 3 100 -113 0 -113 0 3 -100z"/>
<path d="M8080 5080 l0 -100 -55 0 -55 0 0 -85 0 -85 55 0 55 0 0 -244 0 -244
28 -53 c21 -42 40 -62 82 -87 54 -33 56 -33 157 -30 56 2 105 6 108 10 4 3 1
42 -6 87 l-12 81 -44 0 c-33 0 -50 6 -68 25 -25 24 -25 24 -25 240 l0 215 75
0 75 0 0 85 0 85 -75 0 -75 0 0 100 0 100 -110 0 -110 0 0 -100z"/>
<path d="M6908 4973 c-147 -56 -238 -187 -254 -368 -16 -178 68 -350 203 -418
126 -64 291 -61 406 7 72 41 134 120 151 189 l6 27 -97 0 c-98 0 -98 0 -115
-29 -27 -48 -89 -74 -166 -69 -60 4 -67 7 -102 45 -37 39 -76 134 -64 154 3 5
129 7 281 4 l276 -5 -5 99 c-4 83 -10 109 -35 163 -41 88 -92 141 -171 180
-59 29 -76 33 -166 35 -77 3 -112 -1 -148 -14z m191 -153 c42 -12 86 -52 112
-102 38 -75 41 -73 -161 -70 -99 2 -180 4 -180 6 0 2 5 18 11 37 18 53 58 99
103 120 47 21 67 23 115 9z"/>
<path d="M8753 4971 c-165 -57 -263 -206 -263 -401 0 -137 42 -242 130 -323
211 -196 568 -107 657 162 26 81 24 245 -5 324 -41 113 -111 184 -229 233 -74
30 -210 33 -290 5z m228 -174 c52 -34 82 -104 87 -202 10 -187 -76 -304 -202
-275 -53 12 -86 38 -115 90 -46 83 -38 265 16 347 40 61 152 82 214 40z"/>
</g>
</svg>
